<?xml version="1.0" encoding="utf-8"?>
<!-- Designed by Vexels.com - 2016 All Rights Reserved - https://vexels.com/terms-and-conditions/  -->

<svg version="1.0" id="Capa_1" xmlns="http://www.w3.org/2000/svg" xmlns:xlink="http://www.w3.org/1999/xlink" x="0px" y="0px"
	 width="1200px" height="1200px" viewBox="0 0 1200 1200" enable-background="new 0 0 1200 1200" xml:space="preserve">
<g>
	<path stroke="#E7CAB3" stroke-width="1.3514" stroke-miterlimit="10" d="M911.499,503.527
		c25.119-22.787,46.745-48.042,60.941-79.044c11.081-24.173,17.973-49.572,20.626-76.064c0.159-1.619,0.781-3.178,1.179-4.755
		c-0.15-11.338-0.31-22.669-0.469-34.007c-2.709-13.949-4.646-28.117-8.278-41.819c-9.483-35.663-27.147-66.902-52.21-94.093
		c-32.875-35.672-73.116-58.562-120.244-68.712c-36.389-7.848-72.821-6.429-108.883,3.623
		c-33.072,9.227-62.351,25.328-88.374,47.502c-6.19,5.268-11.783,11.243-17.958,17.186c-7.959-6.821-15.456-13.749-23.462-20.037
		c-32.898-25.82-70.152-41.256-111.679-46.529c-49.222-6.264-95.647,2.709-139.013,26.321
		c-28.292,15.403-52.146,36.383-71.635,62.188c-21.973,29.128-36.275,61.593-42.601,97.518c-1.626,9.259-2.709,18.613-4.04,27.917
		c0.161,11.337,0.32,22.675,0.479,34.013c2.174,10.406,4.134,20.883,6.565,31.242c8.286,35.286,23.073,67.842,48.226,93.919
		c24.357,25.255,51.199,48.154,77.331,71.657c33.327,29.989,67.005,59.603,100.604,89.291
		c26.849,23.733,53.843,47.302,80.699,71.029c17.832,15.759,35.655,31.575,53.59,47.493V557.379
		c-25.104-12.11-42.576-37.774-43.295-67.707c-0.062-0.772-0.174-1.403-0.174-2.176V276.234c0-9.33,7.567-16.874,16.93-16.874
		c9.242,0,16.874,7.544,16.874,16.874v198.38c1.436,2.031,10.082,12.078,25.281-0.121V276.234c0-9.33,7.635-16.874,16.877-16.874
		c9.424,0,16.939,7.544,16.939,16.874v198.259c1.194,1.642,9.896,12.431,25.399,0.056V276.234c0-9.33,7.632-16.874,16.874-16.874
		c9.362,0,16.933,7.544,16.933,16.874v211.262c0,0.772-0.121,1.521-0.239,2.32c-0.719,29.909-18.183,55.452-43.231,67.562v203.922
		c34.307-32.3,68.615-64.582,102.857-96.947c28.323-26.752,56.487-53.69,84.819-80.444
		C854.228,557.013,882.48,529.843,911.499,503.527z M307.869,230.032c-68.056,72.942-39.478,188.69-13.68,248.957
		c-16.413-16.414-121.541-141.716-22.938-268.899c117.636-139.523,257.224-52.879,257.224-52.879S405.987,124.882,307.869,230.032z
		 M666.852,157.211c0,0,139.588-86.644,257.226,52.879c98.604,127.183-6.524,252.485-22.937,268.899
		c25.797-60.267,54.377-176.015-13.681-248.957C789.342,124.882,666.852,157.211,666.852,157.211z"/>
	<g>
		<g>
			<path d="M190.941,1078.036l-11.609,0.94l0.311-16.635c0-20.605-1.331-51.358-4-92.254c-2.669-40.905-4-68.258-4-82.066
				c0-13.805,0.36-22.124,1.092-24.945c0.733-3.449,2.932-5.179,6.597-5.179l7.681,0.312c2.62,0,3.928-1.745,3.928-5.25
				c0-3.508-2.828-5.259-8.478-5.259c-3.346,0-9.728,0.964-19.138,2.901c-9.417,1.934-14.126,4.398-14.126,7.376
				c0,2.98,1.156,4.472,3.458,4.472l10.979-2.352c0.629,2.087,0.941,8.31,0.941,18.669l-0.311,37.662
				c0.311,11.081,0.996,29.334,2.04,54.751c1.044,25.423,1.649,42.52,1.8,51.308c0.161,8.791,0.575,17.634,1.26,26.516
				c0.676,8.891,0.964,16.429,0.859,22.595c-0.103,6.176-2.302,9.259-6.589,9.259l-7.058-0.312c-4.917,0-7.379,1.203-7.379,3.611
				c1.57,3.655,7.274,5.489,17.107,5.489h0.781c1.259,1.671,4.294,2.509,9.106,2.509c2.51-2.509,4.964-3.767,7.37-3.767
				l10.198,1.568l5.498-3.918C199.259,1080.697,196.486,1078.036,190.941,1078.036z"/>
			<path d="M177.038,1094.193h-0.845c-4.821,0-8.107-0.823-9.987-2.509c-10.767-0.015-16.943-2.214-18.881-6.724l-0.165-0.386
				v-0.419c0-2.576,1.635-5.651,9.419-5.651l7.148,0.315c1.235-0.003,4.338-0.003,4.459-7.258c0.103-6.07-0.184-13.607-0.853-22.404
				c-0.677-8.779-1.103-17.74-1.266-26.634c-0.146-8.599-0.734-25.366-1.798-51.263c-1.07-26.074-1.738-43.994-2.04-54.777
				l0.31-37.736c0-9.115-0.243-13.823-0.525-16.216l-9.355,1.957c-1.29,0-5.498-0.469-5.498-6.512c0-4.245,4.86-7.137,15.757-9.374
				c9.619-1.978,16.013-2.942,19.547-2.942c9.152,0,10.518,4.572,10.518,7.299c0,6.579-4.174,7.29-5.968,7.29l-7.763-0.315
				c-2.613,0.003-3.989,1.067-4.519,3.567c-0.489,1.893-1.048,7.594-1.048,24.521c0,13.734,1.344,41.3,3.996,81.933
				c2.658,40.71,4.005,71.796,4.005,92.386l-0.27,14.421l9.363-0.761c0.007,0,0.013,0,0.019,0c6.832,0,10.503,3.567,10.503,10.035
				v1.052l-7.029,5.009l-10.848-1.669c-1.791,0.053-3.736,1.117-5.787,3.166L177.038,1094.193z M151.323,1083.819
				c1.573,2.447,6.845,3.785,14.983,3.785h1.798l0.612,0.813c0.365,0.484,1.735,1.577,6.665,1.686
				c2.696-2.494,5.446-3.758,8.182-3.758l0.309,0.024l9.38,1.441l3.925-2.794c-0.299-3.452-2.212-4.941-6.236-4.941l-13.69,1.114
				l0.352-18.887c0-20.464-1.344-51.458-3.996-92.082c-2.658-40.719-4.005-68.376-4.005-82.199c0-18.822,0.66-23.545,1.159-25.458
				c0.91-4.292,3.96-6.706,8.571-6.706l7.763,0.315c0.669-0.003,1.806-0.003,1.806-3.213c0-0.881,0-3.219-6.438-3.219
				c-3.21,0-9.51,0.961-18.727,2.859c-12.147,2.494-12.497,5.088-12.497,5.377c0,2.176,0.629,2.405,1.214,2.429l12.593-2.697
				l0.542,1.798c0.441,1.462,1.027,5.05,1.027,19.259l-0.311,37.68c0.301,10.692,0.968,28.591,2.038,54.651
				c1.064,25.927,1.652,42.726,1.801,51.355c0.161,8.814,0.582,17.696,1.254,26.395c0.678,8.926,0.97,16.591,0.865,22.787
				c-0.164,9.799-5.477,11.264-8.628,11.264l-7.148-0.315C154.253,1082.584,151.805,1082.917,151.323,1083.819z"/>
		</g>
		<g>
			<path d="M314.888,1080.544h-11.918c-1.156,1.356-3.355,2.04-6.598,2.04s-5.353-0.525-6.35-1.568
				c-0.996-1.044-1.49-3.083-1.49-6.12c0-3.036,0.414-5.179,1.252-6.438c-0.208-6.898-0.861-18.563-1.96-34.983
				c-1.1-16.422-1.649-27.545-1.649-33.343c0-5.81,0.215-11.538,0.629-17.186l-0.94-1.253c0.414-5.226,0.629-9.415,0.629-12.555
				c0-3.131-0.525-11.323-1.57-24.556c-1.051-13.224-1.568-44.584-1.568-94.061c0-3.864-2.04-5.801-6.12-5.801
				c-2.829,0-4.239,1.099-4.239,3.29l3.298,134.314l3.14,91.154l-1.888,14.595c0,1.777,0.756,3.349,2.279,4.711
				c1.514,1.353,3.004,2.04,4.469,2.04c1.467,0,3.083-0.654,4.868-1.96c1.778-1.315,3.235-1.969,4.391-1.969l10.039,0.318
				c3.243,0,5.386-0.207,6.437-0.628c2.51,0.837,4.127,1.259,4.86,1.259c2.933,0,4.398-2.096,4.398-6.279
				C319.286,1083.675,317.821,1082.012,314.888,1080.544z"/>
			<path d="M284.293,1096.864c-1.968,0-3.928-0.861-5.828-2.559c-1.963-1.757-2.96-3.853-2.96-6.232l1.884-14.69l-3.134-90.989
				l-3.298-134.335c-0.001-1.3,0.451-5.38,6.278-5.38c5.185,0,8.16,2.86,8.16,7.841c0,49.265,0.525,80.857,1.561,93.899
				c1.061,13.43,1.577,21.516,1.577,24.718c0,3.007-0.189,6.921-0.576,11.948l0.938,1.247l-0.056,0.763
				c-0.414,5.645-0.623,11.376-0.623,17.036c0,5.734,0.553,16.906,1.645,33.208c1.095,16.352,1.755,28.146,1.963,35.056l0.019,0.651
				l-0.36,0.539c-0.339,0.513-0.91,1.881-0.91,5.309c0,3.473,0.709,4.484,0.926,4.711c0.149,0.156,1.086,0.937,4.874,0.937
				c2.526,0,4.317-0.469,5.045-1.324l0.61-0.716h13.342l0.43,0.215c3.667,1.837,5.526,4.139,5.526,6.845
				c0,7.508-4.503,8.319-6.438,8.319c-0.657,0-1.757-0.145-4.87-1.156c-1.027,0.268-2.84,0.525-6.426,0.525l-10.104-0.318
				c-0.252,0-1.198,0.153-3.113,1.568C288.201,1096.094,286.215,1096.864,284.293,1096.864z M277.234,846.76
				c-2.199,0-2.199,0.663-2.199,1.25l3.297,134.264l3.145,91.302l-1.91,14.76c0.018,0.937,0.525,1.952,1.617,2.927
				c2.345,2.105,4.037,1.955,6.773-0.044c2.146-1.589,3.98-2.364,5.595-2.364l10.104,0.318c3.977,0,5.251-0.336,5.613-0.481
				l0.694-0.28l0.711,0.239c3.271,1.091,4.084,1.152,4.214,1.152c0.824,0,2.358,0,2.358-4.239c0-1.17-1.468-2.234-2.855-2.98h-10.59
				c-1.623,1.371-4.066,2.04-7.429,2.04c-3.906,0-6.393-0.699-7.825-2.199c-1.402-1.468-2.054-3.862-2.054-7.529
				c0-3.069,0.405-5.353,1.235-6.957c-0.225-6.933-0.878-18.477-1.939-34.328c-1.097-16.39-1.654-27.654-1.654-33.479
				c0-5.504,0.196-11.075,0.581-16.57l-0.946-1.262l0.062-0.769c0.419-5.288,0.622-9.342,0.622-12.393
				c0-3.051-0.526-11.258-1.564-24.397c-1.058-13.33-1.574-44.15-1.574-94.22C281.314,848.199,280.632,846.76,277.234,846.76z"/>
		</g>
		<g>
			<path d="M416.408,896.812c-1.881-14.126-3.586-22.987-5.098-26.596c-1.515-3.611-3.818-7.402-6.908-11.379
				c-3.084-3.974-4.995-6.532-5.72-7.688c-5.131-4.286-11.641-6.429-19.536-6.429c-7.905,0-14.047,2.453-18.437,7.37
				c-1.991,2.199-3.664,4.973-5.019,8.319c-1.362,3.346-2.382,6.621-3.06,9.808c-0.685,3.186-1.235,6.898-1.649,11.137
				c-0.421,4.239-0.685,7.874-0.788,10.907c-0.103,3.036-0.206,6.535-0.311,10.509c-0.103,3.977-0.629,12.82-1.57,26.516
				c-0.939,13.705-1.409,25.918-1.409,36.642s0.629,23.4,1.879,38.042c0.837,8.788,1.888,17.289,3.14,25.496
				c1.259,8.216,3.004,16.579,5.259,25.104c2.246,8.534,4.86,15.904,7.84,22.127c2.988,6.223,6.724,11.32,11.226,15.297
				c4.494,3.977,9.354,5.966,14.587,5.966c5.226,0,10.118-2.438,14.669-7.296c4.548-4.87,7.975-10.359,10.277-16.476
				c2.302-6.12,3.449-12.057,3.449-17.808c0-5.751,0.837-12.237,2.519-19.456l-0.629-1.259l2.979-41.423
				C424.096,965.904,421.531,933.422,416.408,896.812z M414.679,995.813c0,4.811-0.367,15.17-1.091,31.07
				c-0.631,11.609-2.622,24.868-5.968,39.773c-3.347,14.907-8.684,22.357-16.007,22.357c-5.433,0-10.381-3.768-14.826-11.296
				c-4.447-7.529-7.896-16.629-10.35-27.297c-2.461-10.674-4.812-24.556-7.058-41.659C357.123,991.654,356,975.68,356,960.828
				V948.27c0-63.491,7.896-95.24,23.695-95.24c6.9,0,12.604,3.87,17.098,11.617c2.199,3.871,4.158,8.054,5.887,12.546
				c1.721,4.501,3.188,9.864,4.391,16.087c1.203,6.223,2.279,12.08,3.219,17.569c0.939,5.498,1.673,11.744,2.199,18.754
				c0.517,7.004,0.939,12.971,1.25,17.888c0.318,4.914,0.526,10.539,0.629,16.865c0.104,6.326,0.184,10.878,0.239,13.649
				c0.049,2.774,0.072,6.152,0.072,10.12V995.813z"/>
			<path d="M390.832,1100c-5.719,0-11.081-2.181-15.939-6.479c-4.677-4.13-8.618-9.495-11.712-15.942
				c-3.027-6.317-5.71-13.885-7.974-22.489c-2.246-8.49-4.03-17.006-5.303-25.313c-1.262-8.281-2.323-16.897-3.154-25.611
				c-1.253-14.686-1.888-27.545-1.888-38.237c0-10.712,0.476-23.088,1.413-36.781c0.952-13.861,1.465-22.507,1.567-26.43
				c0.105-3.98,0.208-7.485,0.311-10.524c0.103-3.048,0.372-6.762,0.798-11.04c0.418-4.292,0.986-8.118,1.685-11.364
				c0.702-3.299,1.767-6.716,3.164-10.15c1.439-3.549,3.254-6.553,5.396-8.918c4.761-5.333,11.476-8.042,19.95-8.042
				c8.347,0,15.36,2.323,20.843,6.904l0.42,0.481c0.662,1.055,2.495,3.517,5.604,7.523c3.187,4.097,5.602,8.083,7.178,11.838
				c1.607,3.835,3.321,12.705,5.24,27.117c5.111,36.53,7.706,69.408,7.706,97.699l-2.945,41.011l0.709,1.418l-0.167,0.716
				c-1.636,7.025-2.466,13.413-2.466,18.993c0,5.978-1.204,12.213-3.58,18.527c-2.384,6.332-5.983,12.101-10.697,17.148
				C402.055,1097.329,396.617,1100,390.832,1100z M379.145,846.76c-7.364,0-12.897,2.188-16.916,6.689
				c-1.829,2.019-3.39,4.616-4.649,7.726c-1.31,3.216-2.304,6.4-2.957,9.466c-0.666,3.101-1.209,6.771-1.614,10.91
				c-0.417,4.195-0.68,7.821-0.78,10.78c-0.103,3.03-0.206,6.524-0.311,10.492c-0.103,3.983-0.618,12.685-1.573,26.602
				c-0.933,13.602-1.405,25.882-1.405,36.504c0,10.577,0.629,23.318,1.872,37.868c0.821,8.62,1.872,17.16,3.123,25.364
				c1.252,8.163,3.005,16.538,5.215,24.889c2.201,8.36,4.793,15.683,7.707,21.767c2.857,5.952,6.469,10.881,10.736,14.648
				c4.149,3.673,8.478,5.457,13.238,5.457c4.677,0,8.988-2.176,13.18-6.651c4.345-4.652,7.663-9.97,9.858-15.8
				c2.202-5.852,3.318-11.603,3.318-17.089c0-5.698,0.809-12.154,2.407-19.199l-0.551-1.103l3.019-41.984
				c-0.006-27.955-2.585-60.641-7.673-97c-2.301-17.272-3.966-23.719-4.96-26.092c-1.437-3.426-3.672-7.096-6.639-10.913
				c-2.997-3.862-4.808-6.288-5.651-7.57C392.442,848.697,386.39,846.76,379.145,846.76z M391.613,1091.053
				c-6.185,0-11.764-4.139-16.583-12.299c-4.529-7.67-8.091-17.05-10.581-27.878c-2.46-10.671-4.848-24.753-7.093-41.851
				c-2.253-17.092-3.396-33.308-3.396-48.198V948.27c0-65.461,8.418-97.28,25.735-97.28c7.653,0,13.999,4.251,18.862,12.635
				c2.236,3.935,4.261,8.248,6.025,12.835c1.764,4.611,3.273,10.138,4.491,16.435c1.206,6.238,2.283,12.11,3.226,17.61
				c0.948,5.551,1.695,11.924,2.223,18.946c0.517,7.016,0.941,12.988,1.252,17.911c0.317,4.882,0.529,10.589,0.634,16.962
				c0.105,6.323,0.184,10.872,0.239,13.64c0.049,2.789,0.072,6.179,0.072,10.161v7.688c0,4.814-0.358,15.008-1.094,31.162
				c-0.634,11.677-2.658,25.172-6.015,40.13C406.042,1082.994,399.987,1091.053,391.613,1091.053z M379.695,855.07
				c-9.88,0-21.655,16.169-21.655,93.2v12.558c0,14.713,1.13,30.75,3.361,47.667c2.229,16.968,4.591,30.92,7.023,41.468
				c2.398,10.418,5.802,19.406,10.12,26.716c4.033,6.83,8.43,10.294,13.069,10.294c6.207,0,10.923-6.987,14.017-20.765
				c3.307-14.734,5.3-28.002,5.921-39.437c0.732-16.075,1.088-26.206,1.088-30.958v-7.688c0-3.953-0.024-7.32-0.072-10.085
				c-0.055-2.768-0.134-7.323-0.239-13.652c-0.102-6.305-0.312-11.948-0.625-16.765c-0.311-4.914-0.731-10.875-1.248-17.87
				c-0.517-6.892-1.25-13.139-2.175-18.563c-0.938-5.474-2.012-11.317-3.212-17.525c-1.172-6.061-2.616-11.358-4.292-15.745
				c-1.692-4.395-3.629-8.522-5.756-12.266C390.89,858.537,385.875,855.07,379.695,855.07z"/>
		</g>
		<g>
			<path d="M530.006,848.641l-1.881-1.259c-2.199,0-4.867,1.568-8.006,4.708v1.259c0,8.994-3.977,47.643-11.918,115.949
				c-4.398,37.765-6.885,59.627-7.458,65.587c-0.573,5.961-1.434,12.078-2.59,18.357c-5.545-23.742-11.48-57.661-17.807-101.752
				c-6.326-44.092-10.222-70.112-11.688-78.054c-1.465-7.953-2.302-12.455-2.51-13.498c-1.051-7.735-3.297-11.609-6.748-11.609
				c-3.561,0-5.704,1.149-6.429,3.452c2.509,4.708,5.617,18.253,9.329,40.634c3.714,22.386,9.18,57.483,16.397,105.286
				c7.218,47.806,12.763,79.498,16.636,95.084c2.509,0.837,4.127,1.25,4.86,1.25c2.302,0,4.342-2.35,6.118-7.06
				c0.208-12.34,3.347-47.092,9.418-104.26c6.064-57.165,10.197-87.734,12.396-91.711c0-4.493,0.758-11.137,2.273-19.925
				c1.512-8.787,2.279-15.426,2.279-19.927l-3.298-2.509H530.006z M497.523,1054.971l0.629-0.79l0.47,0.79H497.523z"/>
			<path d="M500.192,1096.073c-0.673,0-1.907-0.153-5.505-1.356l-1.063-0.354l-0.271-1.088
				c-3.871-15.574-9.481-47.626-16.673-95.272c-7.191-47.626-12.707-83.039-16.393-105.257c-3.658-22.059-6.726-35.522-9.116-40.008
				l-0.402-0.755l0.256-0.817c0.702-2.226,2.724-4.879,8.375-4.879c6.951,0,8.319,10.067,8.768,13.375
				c0.187,0.922,1.027,5.433,2.496,13.404c1.461,7.906,5.398,34.195,11.701,78.133c5.417,37.753,10.605,68.346,15.457,91.169
				c0.35-2.591,0.647-5.156,0.891-7.679c0.576-6.002,3.017-27.468,7.461-65.628c7.9-67.943,11.905-106.872,11.905-115.713v-2.105
				l0.598-0.596c1.72-1.721,3.33-3.016,4.848-3.897l-0.199-0.15h0.467c1.53-0.843,2.967-1.259,4.332-1.259h0.619l7.977,5.339h-2.005
				v0.469c0,4.616-0.755,11.249-2.308,20.272c-1.489,8.634-2.243,15.22-2.243,19.58v0.528l-0.255,0.46
				c-1.415,2.559-4.671,20.411-12.153,90.939c-6.036,56.841-9.202,91.859-9.407,104.081l-0.131,0.684
				C507.438,1089.765,505.059,1096.073,500.192,1096.073z M497.044,1091.195c2.434,0.769,3.076,0.799,3.148,0.799
				c1.242,0,2.759-2.016,4.086-5.415c0.262-12.658,3.431-47.667,9.423-104.081c7.756-73.122,10.808-88.25,12.387-91.959
				c0.05-4.581,0.823-11.24,2.299-19.81c1.381-8.024,2.133-14.268,2.237-18.578l-3.413-2.597c-1.113,0.304-2.748,1.2-5.053,3.393
				v0.401c0,9.123-3.903,47.128-11.932,116.184c-4.381,37.603-6.888,59.656-7.455,65.546c-0.576,6.005-1.455,12.228-2.607,18.495
				l2.046,3.437h-2.678l-1.142,6.211l-1.452-6.211h-3.648l2.821-3.54c-5.517-23.681-11.499-57.891-17.785-101.693
				c-6.297-43.882-10.225-70.115-11.675-77.971c-1.462-7.939-2.297-12.431-2.504-13.472c-0.52-3.8-1.798-9.967-4.748-9.967
				c-2.725,0-3.752,0.737-4.181,1.365c2.541,5.578,5.521,18.811,9.093,40.348c3.689,22.236,9.208,57.669,16.402,105.316
				C487.723,1043.819,493.213,1075.362,497.044,1091.195z"/>
		</g>
		<g>
			<path d="M596.843,1080.544l-19.297,1.094v-2.98c0-4.599-0.581-7.579-1.728-8.941v-65.275l1.1-1.881l-2.352-26.985
				c0-4.08,4.08-6.12,12.24-6.12l7.37,0.31c3.243,0,4.867-2.143,4.867-6.429c0-1.259-0.684-2.485-2.04-3.688
				c-1.362-1.203-2.621-1.801-3.767-1.801l-17.729,3.29l-1.887-1.1l0.628-0.628l1.571-40.165l-2.508-54.598
				c0-2.512,2.349-3.77,7.057-3.77l8.628,0.631c7.744,0,11.617-2.04,11.617-6.12c0-1.465-0.398-2.854-1.179-4.159
				c-0.79-1.306-3.691-1.96-8.708-1.96l-1.1-0.94l-22.436,2.821l-5.807,8.947c0.103,3.555,0.834,9.124,2.196,16.709
				c1.356,7.585,2.04,13.312,2.04,17.177l-1.568,63.866l1.881,68.718l-1.571,32.795c0,5.124,0.424,9.831,1.259,14.117v0.631
				l-2.98,11.927c0,1.671,0.734,3.266,2.199,4.787c1.459,1.512,7.004,2.27,16.629,2.27h7.529c4.286,0,8.731-0.445,13.339-1.329
				c4.605-0.893,7.791-2.91,9.575-6.049C611.91,1082.266,606.883,1080.544,596.843,1080.544z"/>
			<path d="M588.996,1095.133h-7.529c-13.487,0-16.716-1.462-18.097-2.895c-1.84-1.907-2.771-3.994-2.771-6.202l0.06-0.495
				l2.92-11.868c-0.836-4.369-1.259-9.182-1.259-14.312l1.574-32.892l-1.882-68.565l1.568-63.972
				c-0.002-3.655-0.676-9.315-2.009-16.768c-1.391-7.75-2.12-13.312-2.227-17.009l-0.019-0.637l6.669-10.273l24.272-3.054
				l1.217,1.044c5.583,0.071,8.499,0.964,9.695,2.939c0.979,1.636,1.474,3.39,1.474,5.215c0,3.723-2.37,8.16-13.657,8.16
				l-8.776-0.637c-1.727,0.006-4.87,0.23-4.87,1.736l2.506,54.503l-1.548,39.764l16.927-3.107c1.66,0,3.381,0.779,5.117,2.311
				c1.813,1.61,2.73,3.363,2.73,5.218c0,7.644-4.832,8.469-6.907,8.469l-7.455-0.313c-6.683,0.003-10.114,1.377-10.114,4.083
				l2.399,27.453l-1.147,1.963v64.072c1.176,1.887,1.728,4.973,1.728,9.592v0.823l17.142-0.973c0.015,0,0.032,0,0.047,0
				c7.452,0,17.174,0.758,17.174,7.208v0.539l-0.265,0.469c-2.084,3.667-5.772,6.037-10.96,7.042
				C597.995,1094.673,593.379,1095.133,588.996,1095.133z M564.684,1086.26c0.066,1.052,0.599,2.084,1.623,3.148
				c0.17,0.165,2.068,1.645,15.16,1.645h7.529c4.127,0,8.484-0.433,12.956-1.294c3.709-0.719,6.276-2.184,7.821-4.466
				c-0.616-1.332-4.239-2.709-12.929-2.709l-21.337,1.212v-5.138c0-5.545-0.873-7.181-1.247-7.626l-0.481-0.572v-66.569l1.053-1.798
				l-2.297-26.339c-0.009-5.592,4.796-8.337,14.271-8.337l7.455,0.312c0.973-0.003,2.741-0.003,2.741-4.392
				c0-0.637-0.454-1.365-1.353-2.161c-0.867-0.766-1.666-1.218-2.27-1.28l-18.244,3.384l-4.829-2.812l1.934-1.937l1.542-39.366
				l-2.508-54.424c-0.003-2.745,1.574-5.905,9.094-5.905l8.776,0.637c6.208-0.006,9.43-1.38,9.43-4.086
				c0-1.094-0.292-2.111-0.89-3.113l0,0c-0.012,0-0.999-0.967-6.957-0.967h-0.755l-0.985-0.843l-20.601,2.588l-4.939,7.611
				c0.162,3.47,0.881,8.773,2.14,15.78c1.394,7.797,2.072,13.534,2.072,17.537l-1.57,63.916l1.881,68.612l-1.573,32.949
				c0.003,4.849,0.414,9.469,1.223,13.631l0.038,1.271L564.684,1086.26z"/>
		</g>
		<g>
			<path d="M719.781,955.021c-1.945,0-5.259,0.628-9.967,1.881c-4.711,1.258-8.319,1.887-10.831,1.887
				c0-10.462-0.778-25.941-2.349-46.45c-1.568-20.5-2.358-35.979-2.358-46.441c0-4.917,3.93-7.37,11.768-7.37l7.848,0.309
				c3.976,0,5.961-1.044,5.961-3.139c0-4.914-1.778-7.37-5.33-7.37c-21.242,0-31.855,3.817-31.855,11.449v2.04
				c4.08,5.132,6.12,38.753,6.12,100.891c0,10.771,0.678,26.905,2.04,48.401c1.362,21.496,2.04,37.685,2.04,48.56l-0.312,10.359
				c0,14.539,1.825,21.814,5.492,21.814c4.708,0,7.057-1.833,7.057-5.498c0-1.571-0.309-3.139-0.94-4.708l0.94-1.722
				c0-12.03-1.02-30.045-3.06-54.052c-2.04-24.013-3.06-42.075-3.06-54.209c0-2.096,2.223-3.346,6.671-3.767
				c4.445-0.416,8.891-0.94,13.336-1.571c4.446-0.628,6.668-2.246,6.668-4.867c0-1.356-0.492-2.765-1.489-4.23
				C723.174,955.752,721.709,955.021,719.781,955.021z"/>
			<path d="M698.046,1093.883c-5.28,0-7.532-7.134-7.532-23.854l0.312-10.421c0-10.754-0.684-27.047-2.037-48.369
				c-1.356-21.407-2.043-37.736-2.043-48.531c0-80.465-3.555-96.956-5.678-99.621l-0.442-0.557v-2.754
				c0-9.076,11.087-13.489,33.895-13.489c2.754,0,7.37,1.223,7.37,9.41c0,1.934-1.041,5.179-8,5.179l-7.927-0.312
				c-9.648,0.003-9.648,3.873-9.648,5.333c0,10.309,0.79,25.882,2.352,46.285c1.459,19.046,2.246,33.98,2.344,44.445
				c2.158-0.236,4.929-0.802,8.275-1.695c4.932-1.315,8.363-1.952,10.494-1.952c2.603,0,4.705,1.07,6.076,3.092
				c1.223,1.795,1.843,3.605,1.843,5.377c0,2.6-1.462,5.904-8.422,6.886c-4.475,0.637-8.994,1.168-13.433,1.583
				c-3.328,0.315-4.82,1.099-4.82,1.736c0,12.013,1.026,30.192,3.051,54.035c2.037,23.955,3.069,42.196,3.069,54.226v0.522
				l-0.749,1.368c0.498,1.498,0.749,3.022,0.749,4.54C707.143,1089.161,705.961,1093.883,698.046,1093.883z M684.707,861.193
				c2.75,4.578,6.12,21.693,6.12,101.516c0,10.709,0.684,26.949,2.037,48.271c1.356,21.407,2.043,37.789,2.043,48.69l-0.312,10.421
				c0,19.486,3.417,19.713,3.452,19.713c5.017,0,5.017-2.249,5.017-3.458c0-1.312-0.265-2.638-0.793-3.947l-0.359-0.893l1.153-2.108
				c-0.029-11.918-1.055-29.865-3.051-53.359c-2.037-23.96-3.069-42.255-3.069-54.383c0-3.31,2.865-5.262,8.519-5.798
				c4.375-0.41,8.829-0.935,13.242-1.56c3.26-0.46,4.914-1.418,4.914-2.847c0-0.938-0.383-1.975-1.135-3.083
				c-0.613-0.905-1.447-1.306-2.703-1.306c-1.748,0-4.923,0.61-9.442,1.813c-4.923,1.315-8.637,1.954-11.355,1.954h-2.04v-2.04
				c0-10.421-0.787-25.998-2.344-46.294c-1.568-20.508-2.364-36.185-2.364-46.597c0-4.292,2.397-9.41,13.808-9.41l7.927,0.312
				c1.731-0.003,3.841-0.292,3.841-1.102c0-5.33-2.223-5.33-3.29-5.33c-13.601,0-29.815,1.633-29.815,9.409V861.193z"/>
		</g>
		<g>
			<path d="M822.789,896.812c-1.887-14.126-3.585-22.987-5.106-26.596c-1.515-3.611-3.817-7.402-6.901-11.379
				c-3.083-3.974-4.994-6.532-5.728-7.688c-5.123-4.286-11.641-6.429-19.536-6.429c-7.897,0-14.038,2.453-18.436,7.37
				c-1.984,2.199-3.659,4.973-5.02,8.319c-1.362,3.346-2.382,6.621-3.06,9.808c-0.678,3.186-1.226,6.898-1.648,11.137
				c-0.416,4.239-0.678,7.874-0.781,10.907c-0.103,3.036-0.206,6.535-0.312,10.509c-0.109,3.977-0.628,12.82-1.568,26.516
				c-0.949,13.705-1.418,25.918-1.418,36.642s0.628,23.4,1.887,38.042c0.837,8.788,1.881,17.289,3.14,25.496
				c1.253,8.216,3.004,16.579,5.25,25.104c2.249,8.534,4.87,15.904,7.85,22.127c2.977,6.223,6.715,11.32,11.217,15.297
				c4.493,3.977,9.363,5.966,14.595,5.966c5.229,0,10.12-2.438,14.669-7.296c4.552-4.87,7.977-10.359,10.279-16.476
				c2.294-6.12,3.449-12.057,3.449-17.808c0-5.751,0.837-12.237,2.509-19.456l-0.628-1.259l2.98-41.423
				C830.471,965.904,827.912,933.422,822.789,896.812z M821.061,995.813c0,4.811-0.369,15.17-1.1,31.07
				c-0.631,11.609-2.615,24.868-5.961,39.773c-3.355,14.907-8.684,22.357-16.007,22.357c-5.442,0-10.38-3.768-14.825-11.296
				c-4.449-7.529-7.898-16.629-10.359-27.297c-2.453-10.674-4.811-24.556-7.06-41.659c-2.246-17.107-3.369-33.081-3.369-47.932
				V948.27c0-63.491,7.897-95.24,23.686-95.24c6.91,0,12.605,3.87,17.107,11.617c2.199,3.871,4.159,8.054,5.881,12.546
				c1.728,4.501,3.195,9.864,4.398,16.087c1.203,6.223,2.27,12.08,3.21,17.569c0.949,5.498,1.671,11.744,2.199,18.754
				c0.525,7.004,0.94,12.971,1.259,17.888c0.309,4.914,0.519,10.539,0.622,16.865c0.103,6.326,0.183,10.878,0.239,13.649
				c0.047,2.774,0.08,6.152,0.08,10.12V995.813z"/>
			<path d="M797.213,1100c-5.725,0-11.09-2.181-15.948-6.479c-4.684-4.139-8.623-9.504-11.703-15.942
				c-3.033-6.335-5.719-13.902-7.983-22.489c-2.258-8.57-4.039-17.086-5.294-25.316c-1.25-8.148-2.311-16.765-3.154-25.608
				c-1.259-14.639-1.895-27.498-1.895-38.237c0-10.777,0.478-23.153,1.424-36.784c0.926-13.504,1.453-22.398,1.562-26.43
				c0.106-3.977,0.209-7.482,0.313-10.521c0.103-3.03,0.372-6.745,0.79-11.04c0.43-4.301,0.996-8.124,1.683-11.361
				c0.705-3.302,1.769-6.718,3.166-10.152c1.444-3.549,3.26-6.55,5.395-8.915c4.773-5.336,11.488-8.045,19.951-8.045
				c8.354,0,15.367,2.323,20.844,6.904l0.413,0.471c0.678,1.067,2.568,3.602,5.619,7.532c3.184,4.106,5.595,8.089,7.169,11.838
				c1.601,3.797,3.316,12.667,5.247,27.115c5.109,36.506,7.7,69.381,7.7,97.701l-2.945,41.014l0.705,1.415l-0.165,0.714
				c-1.63,7.039-2.456,13.43-2.456,18.996c0,5.955-1.206,12.187-3.579,18.525c-2.385,6.338-5.984,12.11-10.701,17.151
				C808.435,1097.329,803,1100,797.213,1100z M785.519,846.76c-7.355,0-12.888,2.188-16.915,6.689
				c-1.825,2.022-3.387,4.619-4.652,7.729c-1.309,3.213-2.302,6.397-2.954,9.463c-0.657,3.089-1.2,6.762-1.615,10.913
				c-0.41,4.207-0.672,7.832-0.772,10.777c-0.1,3.03-0.203,6.524-0.309,10.492c-0.112,4.092-0.643,13.041-1.574,26.602
				c-0.938,13.54-1.412,25.82-1.412,36.504c0,10.621,0.631,23.362,1.878,37.868c0.834,8.746,1.887,17.286,3.125,25.361
				c1.232,8.089,2.983,16.464,5.206,24.895c2.199,8.337,4.793,15.662,7.718,21.764c2.845,5.946,6.453,10.875,10.727,14.648
				c4.092,3.623,8.546,5.457,13.245,5.457c4.678,0,8.991-2.176,13.18-6.651c4.345-4.649,7.665-9.967,9.858-15.8
				c2.202-5.872,3.319-11.624,3.319-17.089c0-5.683,0.808-12.139,2.397-19.199l-0.551-1.105l3.021-41.981
				c-0.006-27.984-2.582-60.67-7.667-97c-1.857-13.902-3.528-22.675-4.967-26.086c-1.436-3.423-3.667-7.099-6.633-10.922
				c-2.983-3.847-4.796-6.27-5.654-7.564C798.825,848.7,792.77,846.76,785.519,846.76z M797.994,1091.053
				c-6.185,0-11.762-4.139-16.582-12.299c-4.525-7.661-8.089-17.042-10.589-27.875c-2.47-10.745-4.855-24.827-7.096-41.854
				c-2.246-17.115-3.387-33.332-3.387-48.198V948.27c0-65.461,8.416-97.28,25.726-97.28c7.65,0,14,4.251,18.869,12.632
				c2.249,3.959,4.271,8.272,6.022,12.841c1.766,4.602,3.278,10.129,4.496,16.432c1.206,6.238,2.276,12.11,3.219,17.61
				c0.949,5.504,1.677,11.703,2.223,18.946c0.525,7.013,0.94,12.986,1.259,17.908c0.315,4.967,0.525,10.674,0.628,16.965
				c0.103,6.32,0.183,10.872,0.239,13.64c0.047,2.789,0.08,6.179,0.08,10.161v7.688c0,4.846-0.36,15.04-1.103,31.165
				c-0.637,11.703-2.656,25.199-6.008,40.127C812.415,1082.997,806.36,1091.053,797.994,1091.053z M786.067,855.07
				c-9.875,0-21.646,16.169-21.646,93.2v12.558c0,14.689,1.126,30.729,3.352,47.667c2.223,16.897,4.587,30.849,7.025,41.468
				c2.406,10.427,5.813,19.415,10.129,26.716c4.033,6.83,8.428,10.294,13.068,10.294c6.199,0,10.916-6.987,14.017-20.765
				c3.302-14.704,5.292-27.972,5.913-39.437c0.728-15.821,1.097-26.242,1.097-30.958v-7.688c0-3.953-0.032-7.32-0.08-10.085
				c-0.056-2.768-0.135-7.32-0.239-13.652c-0.1-6.226-0.309-11.868-0.619-16.77c-0.315-4.905-0.731-10.866-1.256-17.861
				c-0.536-7.113-1.247-13.183-2.175-18.56c-0.937-5.48-2.001-11.323-3.201-17.531c-1.173-6.067-2.621-11.361-4.301-15.742
				c-1.677-4.381-3.614-8.508-5.751-12.269C797.263,858.537,792.246,855.07,786.067,855.07z"/>
		</g>
		<g>
			<path d="M931.99,896.812c-1.881-14.126-3.585-22.987-5.1-26.596c-1.512-3.611-3.815-7.402-6.907-11.379
				c-3.084-3.974-4.997-6.532-5.722-7.688c-5.129-4.286-11.638-6.429-19.536-6.429c-7.903,0-14.047,2.453-18.436,7.37
				c-1.99,2.199-3.664,4.973-5.02,8.319c-1.362,3.346-2.382,6.621-3.057,9.808c-0.687,3.186-1.235,6.898-1.651,11.137
				c-0.421,4.239-0.684,7.874-0.787,10.907c-0.106,3.036-0.209,6.535-0.312,10.509c-0.103,3.977-0.628,12.82-1.568,26.516
				c-0.94,13.705-1.412,25.918-1.412,36.642s0.631,23.4,1.881,38.042c0.837,8.788,1.89,17.289,3.14,25.496
				c1.258,8.216,3.004,16.579,5.259,25.104c2.246,8.534,4.858,15.904,7.838,22.127c2.989,6.223,6.724,11.32,11.228,15.297
				c4.493,3.977,9.351,5.966,14.586,5.966c5.226,0,10.12-2.438,14.669-7.296c4.548-4.87,7.974-10.359,10.276-16.476
				c2.305-6.12,3.452-12.057,3.452-17.808c0-5.751,0.837-12.237,2.518-19.456l-0.631-1.259l2.98-41.423
				C939.678,965.904,937.113,933.422,931.99,896.812z M930.262,995.813c0,4.811-0.369,15.17-1.094,31.07
				c-0.628,11.609-2.621,24.868-5.967,39.773c-3.346,14.907-8.685,22.357-16.007,22.357c-5.433,0-10.383-3.768-14.828-11.296
				c-4.445-7.529-7.895-16.629-10.35-27.297c-2.461-10.674-4.811-24.556-7.057-41.659c-2.255-17.107-3.378-33.081-3.378-47.932
				V948.27c0-63.491,7.894-95.24,23.695-95.24c6.898,0,12.605,3.87,17.098,11.617c2.199,3.871,4.159,8.054,5.887,12.546
				c1.722,4.501,3.186,9.864,4.389,16.087c1.203,6.223,2.279,12.08,3.219,17.569c0.94,5.498,1.674,11.744,2.199,18.754
				c0.519,7.004,0.94,12.971,1.253,17.888c0.318,4.914,0.525,10.539,0.628,16.865c0.103,6.326,0.183,10.878,0.239,13.649
				c0.047,2.774,0.074,6.152,0.074,10.12V995.813z"/>
			<path d="M906.414,1100c-5.719,0-11.081-2.181-15.939-6.479c-4.672-4.127-8.617-9.492-11.715-15.939
				c-3.024-6.314-5.704-13.882-7.971-22.492c-2.246-8.49-4.03-17.006-5.303-25.313c-1.265-8.307-2.326-16.924-3.154-25.611
				c-1.253-14.698-1.89-27.557-1.89-38.237c0-10.707,0.477-23.082,1.418-36.781c0.938-13.646,1.462-22.539,1.562-26.43
				c0.103-3.98,0.206-7.485,0.315-10.527c0.103-3.06,0.371-6.774,0.793-11.037c0.424-4.31,0.99-8.136,1.689-11.367
				c0.696-3.29,1.76-6.706,3.16-10.147c1.439-3.549,3.254-6.55,5.398-8.918c4.761-5.333,11.473-8.042,19.948-8.042
				c8.348,0,15.362,2.323,20.845,6.904l0.419,0.481c0.657,1.049,2.491,3.508,5.607,7.523c3.186,4.101,5.604,8.086,7.175,11.841
				c1.607,3.823,3.322,12.694,5.242,27.114c5.111,36.53,7.706,69.408,7.706,97.699l-2.945,41.011l0.711,1.415l-0.168,0.719
				c-1.636,7.025-2.464,13.416-2.464,18.993c0,5.981-1.206,12.216-3.585,18.527c-2.382,6.335-5.981,12.104-10.692,17.148
				C917.637,1097.329,912.201,1100,906.414,1100z M894.725,846.76c-7.364,0-12.897,2.188-16.915,6.689
				c-1.831,2.022-3.39,4.619-4.652,7.726c-1.309,3.219-2.302,6.403-2.951,9.463c-0.666,3.089-1.209,6.757-1.615,10.916
				c-0.416,4.177-0.678,7.803-0.781,10.777c-0.103,3.03-0.206,6.524-0.309,10.492c-0.106,4.006-0.619,12.705-1.574,26.602
				c-0.932,13.61-1.406,25.891-1.406,36.504c0,10.565,0.631,23.306,1.872,37.868c0.819,8.596,1.872,17.133,3.125,25.364
				c1.25,8.163,3.004,16.538,5.215,24.889c2.202,8.363,4.793,15.686,7.706,21.767c2.86,5.955,6.473,10.884,10.739,14.648
				c4.148,3.673,8.478,5.457,13.236,5.457c4.613,0,9.047-2.237,13.18-6.651c4.345-4.652,7.662-9.967,9.855-15.8
				c2.205-5.849,3.322-11.6,3.322-17.089c0-5.695,0.811-12.151,2.406-19.196l-0.554-1.106l3.022-41.984
				c-0.006-27.955-2.585-60.641-7.673-97c-1.848-13.876-3.517-22.649-4.961-26.089c-1.436-3.426-3.667-7.099-6.636-10.916
				c-3.045-3.924-4.814-6.291-5.654-7.57C908.023,848.697,901.971,846.76,894.725,846.76z M907.195,1091.053
				c-6.185,0-11.765-4.139-16.585-12.299c-4.528-7.67-8.089-17.05-10.58-27.878c-2.458-10.662-4.846-24.745-7.093-41.851
				c-2.252-17.092-3.396-33.308-3.396-48.198V948.27c0-65.461,8.419-97.28,25.735-97.28c7.656,0,13.999,4.251,18.863,12.635
				c2.24,3.944,4.263,8.257,6.025,12.838c1.76,4.605,3.269,10.132,4.487,16.432c1.206,6.238,2.284,12.11,3.228,17.61
				c0.949,5.551,1.698,11.924,2.223,18.946c0.519,7.016,0.941,12.988,1.256,17.911c0.313,4.861,0.525,10.568,0.631,16.962
				c0.103,6.32,0.183,10.872,0.239,13.64c0.047,2.789,0.074,6.179,0.074,10.161v7.688c0,4.802-0.359,14.996-1.096,31.165
				c-0.631,11.662-2.653,25.157-6.014,40.127C921.625,1082.994,915.57,1091.053,907.195,1091.053z M895.277,855.07
				c-9.878,0-21.655,16.169-21.655,93.2v12.558c0,14.713,1.129,30.75,3.361,47.667c2.229,16.977,4.593,30.929,7.022,41.468
				c2.4,10.418,5.805,19.406,10.12,26.716c4.033,6.83,8.431,10.294,13.071,10.294c6.208,0,10.925-6.987,14.017-20.765
				c3.31-14.745,5.303-28.014,5.919-39.434c0.734-16.089,1.091-26.221,1.091-30.961v-7.688c0-3.953-0.027-7.32-0.074-10.085
				c-0.056-2.768-0.135-7.32-0.239-13.652c-0.103-6.326-0.312-11.968-0.622-16.765c-0.312-4.914-0.734-10.875-1.253-17.87
				c-0.516-6.892-1.247-13.139-2.175-18.56c-0.938-5.477-2.01-11.32-3.21-17.528c-1.173-6.067-2.618-11.364-4.292-15.745
				c-1.689-4.386-3.626-8.516-5.757-12.266C906.473,858.537,901.458,855.07,895.277,855.07z"/>
		</g>
		<g>
			<path d="M1050.447,966.158l-0.94-1.568l0.631-8.628c-1.044-2.199-1.754-7.476-2.12-15.848c-0.366-8.366-1.02-17.599-1.96-27.695
				c-0.94-10.085-2.85-18.745-5.728-25.965c-2.877-7.219-9.021-15.32-18.436-24.317c-9.41-8.994-18.197-13.495-26.357-13.495h-1.568
				c-16.11,0-24.167,2.565-24.167,7.688c0,2.199,0.711,5.179,2.119,8.947c1.409,3.761,2.302,7.004,2.671,9.728
				c0.366,2.718,0.596,16.499,0.699,41.344c0.103,24.842,0.631,38.257,1.571,40.241c0.318,4.08,1.203,14.436,2.668,31.065
				c1.465,16.635,2.199,31.224,2.199,43.782l-0.318,12.859l-1.409,28.244c-0.312,4.708-1.984,9.003-5.02,12.868
				c0.31,2.096,1.754,3.688,4.319,4.787c2.556,1.1,5.067,1.651,7.529,1.651c2.453,0,10.486-5.498,24.084-16.476
				c13.593-10.99,23.321-27.981,29.184-51.001c1.984-8.157,3.476-14.094,4.472-17.805c0.996-3.714,1.695-6.509,2.119-8.39
				c0.413-1.889,0.834-4.501,1.25-7.847c0.421-3.349,0.628-7.004,0.628-10.99c0-3.965,0.631-6.945,1.881-8.938l-0.94-1.568
				L1050.447,966.158z M1035.702,1003.351c-2.193,10.347-4.997,19.901-8.39,28.633c-3.405,8.732-8.192,17.098-14.359,25.098
				c-6.173,8.006-13.289,14.15-21.343,18.436h-1.562v-9.1l-0.631-1.25c0.416-11.506,0.631-22.044,0.631-31.622
				c0-9.569-0.813-27.925-2.438-55.069c-1.618-27.147-2.432-47.623-2.432-61.431l-2.818-53.339c0.206-2.408,2.453-3.611,6.739-3.611
				c34.522,0,51.779,31.327,51.779,93.984C1040.878,969.981,1039.151,986.404,1035.702,1003.351z"/>
			<path d="M986.829,1093.883c-2.73,0-5.533-0.61-8.333-1.816c-4.05-1.736-5.244-4.419-5.53-6.365l-0.13-0.867l0.542-0.69
				c2.762-3.517,4.304-7.467,4.59-11.745l1.406-28.208l0.315-12.808c0-12.372-0.737-27.044-2.19-43.552
				c-1.427-16.202-2.305-26.451-2.644-30.749c-0.557-1.486-1.462-6.621-1.603-40.728c-0.103-24.665-0.33-38.484-0.681-41.082
				c-0.345-2.547-1.206-5.669-2.559-9.283c-1.512-4.047-2.249-7.208-2.249-9.663c0-8.72,14.958-9.728,26.207-9.728h1.568
				c8.664,0,18.005,4.731,27.766,14.061c9.584,9.159,15.951,17.581,18.923,25.036c2.936,7.367,4.908,16.293,5.863,26.531
				c0.94,10.099,1.604,19.453,1.966,27.795c0.46,10.548,1.403,13.964,1.925,15.061l0.23,0.486l-0.622,8.523l1.102,1.836l-0.94,2.671
				l1.091,1.819l-0.666,1.061c-1.041,1.66-1.568,4.301-1.568,7.853c0,4.068-0.218,7.85-0.646,11.243
				c-0.413,3.328-0.843,6.031-1.279,8.03c-0.43,1.91-1.138,4.731-2.143,8.481c-0.993,3.7-2.494,9.675-4.46,17.761
				c-5.949,23.356-16.001,40.881-29.883,52.104C993.715,1091.873,989.002,1093.883,986.829,1093.883z M977.198,1085.856
				c0.309,0.763,1.047,1.665,2.907,2.461c2.288,0.985,4.545,1.486,6.715,1.486c0.769-0.056,4.678-1.385,22.81-16.022
				c13.183-10.66,22.766-27.453,28.491-49.919c1.966-8.095,3.476-14.1,4.478-17.829c0.988-3.679,1.677-6.447,2.099-8.31
				c0.407-1.863,0.816-4.443,1.215-7.65c0.407-3.231,0.613-6.842,0.613-10.739c0-3.726,0.516-6.65,1.574-8.885l-0.837-1.394
				l0.941-2.671l-0.779-1.3l0.643-8.773c-0.725-1.81-1.63-5.639-2.087-16.11c-0.363-8.275-1.02-17.561-1.954-27.595
				c-0.917-9.846-2.801-18.392-5.592-25.399c-2.753-6.907-8.791-14.846-17.95-23.598c-8.976-8.578-17.369-12.929-24.948-12.929
				h-1.568c-19.972,0-22.127,3.95-22.127,5.648c0,1.931,0.669,4.702,1.99,8.233c1.459,3.897,2.396,7.32,2.783,10.167
				c0.377,2.812,0.61,16.419,0.716,41.609c0.136,32.765,1.014,38.467,1.383,39.398l0.183,0.693
				c0.318,4.077,1.203,14.427,2.665,31.044c1.465,16.629,2.208,31.418,2.208,43.962l-0.318,12.909l-1.412,28.294
				C981.72,1077.455,980.093,1081.888,977.198,1085.856z M992.12,1077.558h-4.112v-10.654l-0.649-1.285l0.021-0.525
				c0.416-11.562,0.628-22.177,0.628-31.548c0-9.469-0.82-27.955-2.435-54.948c-1.615-27.109-2.435-47.818-2.435-61.552
				l-2.815-53.23c0.218-2.783,1.913-5.76,8.776-5.76c35.711,0,53.819,32.309,53.819,96.024c0,15.951-1.757,32.665-5.218,49.677
				c-2.205,10.406-5.059,20.146-8.487,28.966c-3.461,8.87-8.387,17.484-14.645,25.602c-6.317,8.195-13.719,14.586-22,18.993
				L992.12,1077.558z M991.475,1064.717l0.613,1.214v6.995c7.187-4.095,13.657-9.837,19.25-17.089
				c6.022-7.812,10.757-16.087,14.073-24.594c3.349-8.614,6.14-18.141,8.295-28.314c3.405-16.729,5.132-33.169,5.132-48.849
				c0-61.009-16.735-91.944-49.739-91.944c-2.078,0-4.584,0.304-4.708,1.745l2.824,53.056c0.003,13.761,0.819,34.39,2.432,61.419
				c1.619,27.073,2.441,45.642,2.441,55.19C992.088,1042.823,991.882,1053.309,991.475,1064.717z"/>
		</g>
	</g>
</g>
</svg>
